<svg height="511pt" viewBox="1 -132 511.9994 511" width="511pt" xmlns="http://www.w3.org/2000/svg" xmlns:xlink="http://www.w3.org/1999/xlink"><linearGradient id="a"><stop offset=".004" stop-color="#009fff"/><stop offset=".093" stop-color="#099bf8"/><stop offset=".242" stop-color="#238ee4"/><stop offset=".431" stop-color="#4c7bc5"/><stop offset=".654" stop-color="#865f99"/><stop offset=".902" stop-color="#cf3d61"/><stop offset=".995" stop-color="#ec2f4b"/></linearGradient><linearGradient id="b" gradientTransform="matrix(.614557 0 0 -.614557 0 395.452597)" gradientUnits="userSpaceOnUse" x1="-22.411" x2="859.5448" xlink:href="#a" y1="441.3257" y2="441.3257"/><linearGradient id="c" gradientTransform="matrix(.614557 0 0 -.614557 0 395.452597)" gradientUnits="userSpaceOnUse" x1="-22.411" x2="859.5448" xlink:href="#a" y1="503.8098" y2="503.8098"/><path d="m503.46875 34.632812h-85.335938c-4.710937 0-8.53125 3.820313-8.53125 8.53125v8.535157h-30.601562l-14.566406-14.566407c-1.601563-1.601562-3.769532-2.5-6.035156-2.5h-59.730469v-25.601562c0-4.710938-3.820313-8.53125-8.535157-8.53125h-153.597656c-2.265625 0-4.433594.898438-6.035156 2.5l-40.167969 40.167969h-22.066406v-17.066407c0-4.714843-3.820313-8.535156-8.53125-8.535156h-51.203125c-4.710938 0-8.53125 3.820313-8.53125 8.535156v204.796876c0 4.714843 3.820312 8.535156 8.53125 8.535156h51.203125c4.710937 0 8.53125-3.820313 8.53125-8.535156v-17.066407h56.199219l31.636718 31.632813c1.597657 1.601562 3.769532 2.5 6.03125 2.5h170.667969c4.710938 0 8.53125-3.820313 8.53125-8.53125v-28.859375l44.679688-22.339844h23.585937v8.53125c0 4.714844 3.824219 8.535156 8.535156 8.535156h85.332032c4.714844 0 8.535156-3.824219 8.535156-8.535156v-153.597656c0-4.714844-3.820312-8.535157-8.53125-8.535157zm-452.269531 17.066407v170.667969h-34.132813v-187.734376h34.132813zm34.132812 145.066406h-17.066406v-136.53125h17.066406zm238.933594 34.132813h-158.597656l-31.636719-31.632813c-1.597656-1.597656-3.769531-2.5-6.03125-2.5h-25.601562v-141.53125l37.667968-37.667969h141.535156v17.066406h-76.800781c-4.714843 0-8.535156 3.820313-8.535156 8.535157v34.132812c0 4.710938 3.820313 8.53125 8.535156 8.53125h4.265625l115.199219 122.878907zm85.335937-59.730469h-25.601562c-1.320312-.015625-2.625.277343-3.8125.851562l-45.511719 22.800781-102.175781-108.988281h49.101562v17.066407c0 2.265624.898438 4.433593 2.5 6.035156l34.132813 34.132812c1.597656 1.601563 3.769531 2.5 6.03125 2.5h51.199219v-17.066406h-47.667969l-29.132813-29.132812v-22.070313c0-4.710937-3.820312-8.53125-8.53125-8.53125h-76.800781v-17.066406h141.535157l14.566406 14.566406c1.597656 1.597656 3.769531 2.5 6.03125 2.5h34.132812v102.402344zm85.332032 17.066406h-68.265625v-136.535156h68.265625zm0 0" fill="url(#b)"/><path d="m452.265625 77.300781h17.066406v17.066407h-17.066406zm0 0" fill="url(#c)"/></svg>