<svg height="449pt" viewBox="0 -1 449.19846 449" width="449pt" xmlns="http://www.w3.org/2000/svg" xmlns:xlink="http://www.w3.org/1999/xlink"><linearGradient id="lg1"><stop offset=".322" stop-color="#a163f5"/><stop offset=".466" stop-color="#b074ee"/><stop offset=".752" stop-color="#d8a1dd"/><stop offset=".898" stop-color="#efbad3"/></linearGradient><linearGradient id="linear0" gradientUnits="userSpaceOnUse" x1="223.198463" x2="223.198463" xlink:href="#lg1" y1="461.862054" y2="-2.658946"/><linearGradient id="linear1" gradientUnits="userSpaceOnUse" x1="68.542463" x2="68.542463" xlink:href="#lg1" y1="461.862054" y2="-2.658946"/><linearGradient id="linear2" gradientUnits="userSpaceOnUse" x1="426.867463" x2="426.867463" xlink:href="#lg1" y1="461.862054" y2="-2.658946"/><linearGradient id="linear3" gradientUnits="userSpaceOnUse" x1="414.634463" x2="414.634463" xlink:href="#lg1" y1="461.862054" y2="-2.658946"/><linearGradient id="linear5" gradientUnits="userSpaceOnUse" x1="99.529463" x2="99.529463" xlink:href="#lg1" y1="461.862054" y2="-2.658946"/><linearGradient id="linear6" gradientUnits="userSpaceOnUse" x1="111.762463" x2="111.762463" xlink:href="#lg1" y1="461.862054" y2="-2.658946"/><linearGradient id="linear8" gradientUnits="userSpaceOnUse" x1="313.723463" x2="313.723463" xlink:href="#lg1" y1="461.862054" y2="-2.658946"/><linearGradient id="linear9" gradientUnits="userSpaceOnUse" x1="319.033463" x2="319.033463" xlink:href="#lg1" y1="461.862054" y2="-2.658946"/><linearGradient id="linear10" gradientUnits="userSpaceOnUse" x1="324.074463" x2="324.074463" xlink:href="#lg1" y1="461.862054" y2="-2.658946"/><linearGradient id="linear11" gradientUnits="userSpaceOnUse" x1="200.736463" x2="200.736463" xlink:href="#lg1" y1="461.862054" y2="-2.658946"/><linearGradient id="linear12" gradientUnits="userSpaceOnUse" x1="211.330463" x2="211.330463" xlink:href="#lg1" y1="461.862054" y2="-2.658946"/><linearGradient id="linear13" gradientUnits="userSpaceOnUse" x1="210.907463" x2="210.907463" xlink:href="#lg1" y1="461.862054" y2="-2.658946"/><path d="m396.070312 263.832031-2.144531 1.15625c-9.328125-11.199219-25.394531-15.519531-37.644531-9.3125-.046875.023438-.089844.046875-.136719.070313l-5.277343 2.84375c-13.242188-11.214844-32.082032-12.957032-47.160157-4.359375l-29.074219 15.632812h-38.699218c-8.347656.046875-16.597656-1.78125-24.140625-5.355469l-5.332031-2.488281c-31.023438-15.078125-67.886719-11.460937-95.390626 9.359375-.132812.097656-.261718.222656-.382812.332032l-12.871094 11.472656c-4.789062 4.257812-10.441406 7.429687-16.570312 9.296875l-7.253906-23.578125c-.792969-2.480469-3.140626-4.132813-5.746094-4.039063h-62.242188c-1.6875-.097656-3.332031.5625-4.484375 1.804688-1.152343 1.238281-1.691406 2.925781-1.472656 4.605469l20.75 170.222656c.359375 3.027344 2.90625 5.324218 5.953125 5.367187h93.367188c1.917968-.066406 3.699218-1.019531 4.820312-2.578125 1.125-1.558594 1.460938-3.546875.917969-5.390625l-12.222657-40.132812 38.066407-24.082031c5.0625-2.800782 11.003906-3.570313 16.617187-2.15625.121094.03125.246094.050781.375.078124l77.703125 14.304688c21.160157 3.785156 42.980469.703125 62.265625-8.792969.253906-.125.5-.269531.734375-.429687l134.398438-92.28125c2.617187-1.796875 3.382812-5.320313 1.746093-8.042969-10.21875-17.011719-32.015624-22.972656-49.46875-13.527344zm-34.300781 2.515625c6.898438-3.453125 15.574219-.691406 21.199219 4.554688l-50.71875 27.359375-2.78125 1.464843c-1.589844-4.441406-3.882812-8.601562-6.785156-12.320312zm-52.257812-1.4375.144531-.078125c9.121094-5.273437 20.371094-5.238281 29.457031.09375l-25.480469 13.730469c-4.792968-3.476562-10.230468-5.953125-15.996093-7.289062zm-277.449219 169.953125-19.28125-158h51.023438l48.210937 158zm270.890625-67.320312c-16.878906 8.214843-35.929687 10.859375-54.40625 7.554687l-77.507813-14.269531c-8.574218-2.117187-17.632812-.890625-25.335937 3.433594-.09375.054687-.1875.105469-.277344.164062l-35.425781 22.394531-25.257812-82.84375c7.785156-2.378906 14.964843-6.410156 21.046874-11.820312l12.683594-11.292969c23.910156-17.96875 55.867188-21.042969 82.761719-7.957031l5.328125 2.402344c9.171875 4.359375 19.210938 6.601562 29.367188 6.554687h51.691406c15.507812.097657 28.808594 11.089844 31.820312 26.304688l-37.207031-1.601563c-13.636719-.597656-27.296875.050782-40.8125 1.929688-3.292969.453125-5.589844 3.492187-5.136719 6.78125.453125 3.292968 3.488282 5.59375 6.78125 5.140625 12.792969-1.769531 25.722656-2.363281 38.625-1.78125l44.09375 2c.089844 0 .179688.007812.269532.007812 3.3125 0 6-2.683593 6-6 0-.898437-.035157-1.785156-.085938-2.671875l5.925781-3.125 63.871094-34.457031c9.929687-5.375 22.226563-3.464844 30.054687 4.667969zm0 0" fill="url(#linear0)"/><path d="m50.097656 410.804688c0 10.1875 8.261719 18.449218 18.449219 18.449218s18.449219-8.257812 18.449219-18.449218c0-10.1875-8.257813-18.449219-18.449219-18.449219-10.183594.011719-18.4375 8.265625-18.449219 18.449219zm18.449219-6.449219c3.5625 0 6.449219 2.886719 6.449219 6.449219s-2.886719 6.449218-6.449219 6.449218-6.449219-2.886718-6.449219-6.449218c.003906-3.558594 2.886719-6.441407 6.445313-6.449219zm0 0" fill="url(#linear1)"/><path d="m443.199219 99.863281h-32.660157c-3.316406 0-6 2.683594-6 6 0 3.3125 2.683594 6 6 6h32.660157c3.3125 0 6-2.6875 6-6 0-3.316406-2.6875-6-6-6zm0 0" fill="url(#linear2)"/><path d="m398.308594 73.160156c1.296875.003906 2.558594-.417968 3.59375-1.199218l32.660156-24.46875c1.769531-1.265626 2.714844-3.390626 2.472656-5.550782-.246094-2.160156-1.640625-4.023437-3.644531-4.863281-2.007813-.839844-4.3125-.527344-6.023437.816406l-32.660157 24.46875c-2.066406 1.546875-2.910156 4.246094-2.09375 6.695313.816407 2.449218 3.109375 4.101562 5.691407 4.101562zm0 0" fill="url(#linear3)"/><path d="m394.707031 150.261719 32.660157 24.46875c2.652343 1.898437 6.335937 1.328125 8.289062-1.28125 1.957031-2.609375 1.46875-6.304688-1.09375-8.316407l-32.664062-24.472656c-2.652344-1.894531-6.335938-1.324218-8.292969 1.285156-1.953125 2.609376-1.46875 6.304688 1.097656 8.316407zm0 0" fill="url(#linear3)"/><path d="m83.199219 111.863281h32.660156c3.3125 0 6-2.6875 6-6 0-3.316406-2.6875-6-6-6h-32.660156c-3.316407 0-6 2.683594-6 6 0 3.3125 2.683593 6 6 6zm0 0" fill="url(#linear5)"/><path d="m124.5 140.660156-32.660156 24.46875c-2.566406 2.015625-3.054688 5.710938-1.097656 8.320313 1.957031 2.609375 5.636718 3.179687 8.292968 1.28125l32.660156-24.46875c1.769532-1.265625 2.714844-3.390625 2.46875-5.550781-.242187-2.164063-1.636718-4.023438-3.644531-4.863282-2.003906-.839844-4.308593-.53125-6.019531.8125zm0 0" fill="url(#linear6)"/><path d="m91.835938 47.496094 32.664062 24.464844c2.652344 1.898437 6.332031 1.328124 8.289062-1.28125 1.957032-2.609376 1.46875-6.304688-1.09375-8.316407l-32.660156-24.46875c-1.714844-1.34375-4.015625-1.65625-6.023437-.816406-2.007813.839844-3.402344 2.703125-3.644531 4.863281-.246094 2.164063.703124 4.289063 2.472656 5.550782zm0 0" fill="url(#linear6)"/><path d="m305.199219 147.0625c2.972656-2.140625 6.929687-2.3125 10.074219-.4375 3.144531 1.878906 4.875 5.441406 4.40625 9.074219-.433594 3.285156 1.878906 6.300781 5.164062 6.734375 3.289062.433594 6.300781-1.882813 6.734375-5.167969 1.160156-8.871094-3.382813-17.515625-11.351563-21.589844-.878906-2.894531-.277343-6.039062 1.613282-8.402343 1.355468-1.667969 1.714844-3.9375.9375-5.945313s-2.570313-3.445313-4.695313-3.769531c-2.128906-.320313-4.265625.519531-5.605469 2.207031-3.121093 3.886719-4.761718 8.757813-4.628906 13.742187-3.488281.449219-6.8125 1.761719-9.667968 3.816407-2.6875 1.9375-3.296876 5.6875-1.359376 8.378906 1.9375 2.6875 5.6875 3.296875 8.378907 1.359375zm0 0" fill="url(#linear8)"/><path d="m308.296875 89.78125c1.035156.371094 2.097656.644531 3.183594.820312.050781.738282.148437 1.472657.289062 2.199219.355469 1.78125.984375 3.5 1.863281 5.09375 1.601563 2.898438 5.25 3.953125 8.152344 2.351563 2.902344-1.601563 3.953125-5.25 2.351563-8.152344-1.117188-2.035156-.921875-4.535156.5-6.371094 1.417969-1.835937 3.792969-2.652344 6.042969-2.082031 3.195312.785156 6.425781-1.148437 7.246093-4.335937.816407-3.1875-1.085937-6.4375-4.265625-7.289063-7.066406-1.808594-14.519531.878906-18.804687 6.777344-1.734375.175781-3.449219-.453125-4.664063-1.699219-2.316406-2.367188-6.117187-2.410156-8.484375-.09375-2.371093 2.316406-2.414062 6.113281-.097656 8.484375 1.875 1.921875 4.164063 3.390625 6.6875 4.296875zm0 0" fill="url(#linear9)"/><path d="m296.964844 217.160156c6.628906-.003906 13.066406-2.210937 18.300781-6.273437 9.179687 4.589843 20.082031 4.109375 28.820313-1.269531 8.742187-5.382813 14.078124-14.898438 14.113281-25.160157v-7.195312c13-5.710938 22.753906-18.992188 22.753906-34.429688-.003906-10.179687-4.164063-19.914062-11.515625-26.953125.984375-1.078125 1.882812-2.234375 2.691406-3.449218 8.699219-13.09375 5.136719-30.757813-7.957031-39.457032-.71875-.480468-1.464844-.914062-2.222656-1.324218 2.726562-12.21875-.839844-24.992188-9.5-34.03125-8.664063-9.039063-21.273438-13.148438-33.597657-10.945313.007813-.289063.027344-.578125.027344-.867187-.085937-14.210938-11.632812-25.683594-25.839844-25.683594-14.210937 0-25.753906 11.472656-25.84375 25.683594v161.792968c.117188 16.359375 13.410157 29.5625 29.769532 29.5625zm-17.765625-191.355468c.089843-7.554688 6.238281-13.625 13.789062-13.625s13.699219 6.070312 13.789063 13.625c.019531 2.101562-.453125 4.179687-1.375 6.070312-.753906.476562-1.46875.980469-2.191406 1.515625-2.667969 1.972656-3.226563 5.734375-1.253907 8.402344 1.972657 2.664062 5.734375 3.222656 8.402344 1.25 9.6875-7.132813 23.050781-6.503907 32.019531 1.515625 8.972656 8.019531 11.09375 21.226562 5.085938 31.652344-1.585938 2.734374-.777344 6.226562 1.84375 7.988281 2.625 1.761719 6.164062 1.1875 8.09375-1.3125.042968.027343.085937.050781.128906.078125 4.257812 2.8125 6.964844 7.449218 7.328125 12.539062.359375 5.089844-1.667969 10.0625-5.488281 13.445313-4.960938-2.332031-10.378906-3.539063-15.859375-3.535157-3.3125 0-6 2.683594-6 6 0 3.3125 2.6875 6 6 6 13.976562.085938 25.257812 11.441407 25.257812 25.414063 0 13.976563-11.28125 25.332031-25.257812 25.417969-3.3125.007812-5.996094 2.699218-5.988281 6.011718.007812 3.3125 2.699218 5.996094 6.011718 5.988282.890625 0 1.664063-.042969 2.664063-.101563v4.316407c0 9.707031-7.871094 17.578124-17.582031 17.578124-9.707032 0-17.578126-7.871093-17.578126-17.578124 0-3.316407-2.6875-6.007813-6.003906-6.007813s-6.003906 2.691406-6.003906 6.007813c-.007812 6.746093 2.308594 13.289062 6.554688 18.535156-2.652344 1.417968-5.613282 2.160156-8.621094 2.167968-9.734375.003907-17.660156-7.832031-17.765625-17.566406zm0 0" fill="url(#linear10)"/><path d="m144.273438 142.828125c-.183594 15.105469 8.917968 28.777344 22.925781 34.433594v7.195312c-.027344 7.824219 3.0625 15.332031 8.578125 20.878907 5.519531 5.546874 13.011718 8.667968 20.835937 8.683593 4.566407.003907 9.074219-1.070312 13.148438-3.132812 8.855469 6.96875 20.925781 8.242187 31.042969 3.273437 10.117187-4.964844 16.488281-15.292968 16.394531-26.5625v-161.792968c.054687-9.164063-4.800781-17.65625-12.726563-22.257813-7.925781-4.597656-17.710937-4.597656-25.636718 0-7.925782 4.601563-12.78125 13.09375-12.722657 22.257813 0 .289062.046875.578124.058594.867187-12.328125-2.230469-24.953125 1.871094-33.617187 10.921875-8.664063 9.046875-12.214844 21.835938-9.457032 34.054688-.753906.410156-1.5.84375-2.21875 1.324218-13.089844 8.699219-16.652344 26.363282-7.953125 39.457032.835938 1.21875 1.765625 2.371093 2.773438 3.449218-7.328125 7.046875-11.457031 16.785156-11.425781 26.949219zm18.652343-37.042969c-5.035156-7.570312-2.972656-17.789062 4.597657-22.820312.042968-.027344.085937-.050782.128906-.078125 1.929687 2.5 5.46875 3.074219 8.089844 1.3125 2.625-1.761719 3.429687-5.253907 1.847656-7.988281-6.011719-10.425782-3.894532-23.632813 5.078125-31.65625 8.96875-8.019532 22.335937-8.648438 32.023437-1.511719 2.664063 1.96875 6.421875 1.402343 8.390625-1.261719s1.402344-6.421875-1.261719-8.390625c-.726562-.535156-1.46875-1.039063-2.222656-1.515625-2.558594-5.003906-1.757812-11.066406 2.007813-15.238281s9.71875-5.582031 14.957031-3.546875 8.671875 7.09375 8.636719 12.714844v161.792968c.0625 6.183594-3.160157 11.9375-8.472657 15.109375-5.308593 3.171875-11.902343 3.28125-17.316406.292969 4.253906-5.242188 6.582032-11.789062 6.585938-18.539062.027344-2.15625-1.105469-4.164063-2.972656-5.25-1.863282-1.089844-4.167969-1.089844-6.03125 0-1.867188 1.085937-3 3.09375-2.972657 5.25.046875 6.25-3.261719 12.050781-8.667969 15.1875-5.40625 3.140624-12.078124 3.140624-17.484374 0-5.40625-3.136719-8.714844-8.9375-8.667969-15.1875v-4.3125c1 .0625 1.597656.101562 2.492187.101562 1.582032-.003906 3.097656-.640625 4.210938-1.765625 1.113281-1.128906 1.730468-2.652344 1.714844-4.234375-.019532-3.324219-2.71875-6.003906-6.039063-6-9.117187.058594-17.570313-4.765625-22.148437-12.652344-4.582032-7.882812-4.585938-17.617187-.015626-25.507812 4.570313-7.890625 13.019532-12.726563 22.136719-12.675782 3.3125 0 6-2.6875 5.996094-6.003906 0-3.3125-2.6875-5.996094-6.003906-5.996094-5.480469-.003906-10.894531 1.203126-15.855469 3.539063-1.054688-.933594-1.980469-1.996094-2.761719-3.167969zm0 0" fill="url(#linear11)"/><path d="m226.875 137.328125c-2.855469-2.054687-6.179688-3.367187-9.667969-3.816406.132813-4.984375-1.507812-9.855469-4.628906-13.742188-1.332031-1.703125-3.476563-2.558593-5.613281-2.238281-2.140625.316406-3.941406 1.761719-4.714844 3.78125-.777344 2.019531-.40625 4.296875.96875 5.964844 1.886719 2.367187 2.488281 5.507812 1.609375 8.402344-7.96875 4.074218-12.511719 12.714843-11.351563 21.589843.433594 3.285157 3.449219 5.597657 6.734376 5.167969 3.285156-.433594 5.597656-3.449219 5.167968-6.734375-.183594-1.367187-.050781-2.761719.386719-4.070313.921875-2.773437 3.109375-4.945312 5.890625-5.847656s5.828125-.425781 8.203125 1.28125c2.6875 1.9375 6.4375 1.328125 8.375-1.359375s1.328125-6.4375-1.359375-8.378906zm0 0" fill="url(#linear12)"/><path d="m199.265625 71.425781c.847656-.21875 1.734375-.242187 2.589844-.0625 1.816406.367188 3.351562 1.578125 4.128906 3.257813.78125 1.683594.714844 3.636718-.179687 5.261718-1.601563 2.902344-.546876 6.550782 2.355468 8.148438 2.902344 1.601562 6.554688.546875 8.152344-2.355469 1.25-2.242187 1.980469-4.734375 2.152344-7.292969 3.75-.601562 7.210937-2.394531 9.867187-5.113281 2.289063-2.375 2.230469-6.152343-.125-8.457031-2.359375-2.300781-6.132812-2.273438-8.457031.070312-1.214844 1.246094-2.9375 1.875-4.671875 1.699219-4.28125-5.90625-11.738281-8.589843-18.800781-6.777343-3.210938.824218-5.144532 4.09375-4.320313 7.304687.828125 3.210937 4.097657 5.144531 7.304688 4.320313zm0 0" fill="url(#linear13)"/></svg>