<svg height="511pt" viewBox="1 -17 511.9994 511" width="511pt" xmlns="http://www.w3.org/2000/svg" xmlns:xlink="http://www.w3.org/1999/xlink"><linearGradient id="a"><stop offset=".004" stop-color="#009fff"/><stop offset=".093" stop-color="#099bf8"/><stop offset=".242" stop-color="#238ee4"/><stop offset=".431" stop-color="#4c7bc5"/><stop offset=".654" stop-color="#865f99"/><stop offset=".902" stop-color="#cf3d61"/><stop offset=".995" stop-color="#ec2f4b"/></linearGradient><linearGradient id="b" gradientTransform="matrix(.614557 0 0 -.614557 0 502.119162)" gradientUnits="userSpaceOnUse" x1="2.2355" x2="863.1967" xlink:href="#a" y1="385.7857" y2="385.7857"/><linearGradient id="c" gradientTransform="matrix(.614557 0 0 -.614557 0 502.119162)" gradientUnits="userSpaceOnUse" x1="2.2355" x2="863.1967" xlink:href="#a" y1="274.7015" y2="274.7015"/><linearGradient id="d" gradientTransform="matrix(.614557 0 0 -.614557 0 502.119162)" gradientUnits="userSpaceOnUse" x1="2.2355" x2="863.1967" xlink:href="#a" y1="719.0327" y2="719.0327"/><linearGradient id="e" gradientTransform="matrix(.614557 0 0 -.614557 0 502.119162)" gradientUnits="userSpaceOnUse" x1="2.2355" x2="863.1967" xlink:href="#a" y1="691.262" y2="691.262"/><linearGradient id="f" gradientTransform="matrix(.614557 0 0 -.614557 0 502.119162)" gradientUnits="userSpaceOnUse" x1="2.2355" x2="863.1967" xlink:href="#a" y1="746.8034" y2="746.8034"/><linearGradient id="g" gradientTransform="matrix(.614557 0 0 -.614557 0 502.119162)" gradientUnits="userSpaceOnUse" x1="2.2355" x2="863.1967" xlink:href="#a" y1="482.9818" y2="482.9818"/><path d="m481.355469 256.96875c8.722656-9.414062 13.570312-21.769531 13.578125-34.601562v-17.066407c4.714844 0 8.535156-3.820312 8.535156-8.535156.03125-32.957031-26.65625-59.699219-59.613281-59.734375-16.109375-.015625-31.542969 6.480469-42.789063 18.015625v-.945313h-43.347656c-18.464844.023438-33.429688 14.984376-33.453125 33.449219v60.417969c0 4.710938 3.820313 8.53125 8.535156 8.53125h34.132813c4.710937 0 8.53125-3.820312 8.53125-8.53125v-42.667969h17.066406v17.066407c.007812 12.832031 4.855469 25.1875 13.578125 34.601562-17.496094 2.3125-30.589844 17.203125-30.644531 34.851562v92.679688c0 4.714844 3.824218 8.535156 8.535156 8.535156h119.464844c4.714844 0 8.535156-3.824218 8.535156-8.535156v-92.679688c-.054688-17.648437-13.148438-32.539062-30.644531-34.851562zm-96.671875-68.734375h-17.75c-4.714844 0-8.535156 3.820313-8.535156 8.53125v42.667969h-17.066407v-51.882813c.011719-9.046875 7.339844-16.375 16.386719-16.386719h32.125c-2.570312 5.398438-4.3125 11.152344-5.160156 17.070313zm17.238281 0c4.6875-23.09375 27.210937-38.015625 50.300781-33.324219 16.792969 3.410156 29.914063 16.53125 33.324219 33.324219h-16.214844v-17.070313h-17.066406v17.070313h-17.066406v-17.070313h-17.066407v17.070313zm75.945313 17.066406v17.066407c0 18.851562-15.28125 34.132812-34.132813 34.132812s-34.132813-15.28125-34.132813-34.132812v-17.066407zm-68.265626 170.664063h-17.066406v-34.132813h17.066406zm85.332032 0h-17.066406v-34.132813h17.066406zm0-51.199219h-25.601563c-4.710937 0-8.53125 3.820313-8.53125 8.535156v42.664063h-34.132812v-42.664063c0-4.714843-3.820313-8.535156-8.535157-8.535156h-25.597656v-32.945313c.007813-10.078124 8.175782-18.246093 18.25-18.253906h65.894532c10.078124.007813 18.246093 8.175782 18.253906 18.253906zm0 0" fill="url(#b)"/><path d="m119.464844 289.992188c29.324218-4.117188 51.148437-29.175782 51.203125-58.785157v-34.441406c0-4.710937-3.820313-8.53125-8.535157-8.53125h-102.492187c-23.492187.050781-42.523437 19.082031-42.574219 42.570313v76.894531c.007813 12.832031 4.855469 25.191406 13.578125 34.601562-17.496093 2.3125-30.5898435 17.203125-30.644531 34.851563v92.679687c0 4.714844 3.820312 8.535157 8.53125 8.535157h119.46875c4.710938 0 8.53125-3.820313 8.53125-8.535157v-92.679687c-.050781-17.648438-13.144531-32.539063-30.640625-34.851563 8.71875-9.410156 13.570313-21.769531 13.574219-34.601562zm-85.332032 128.640624v42.667969h-17.066406v-84.148437c.023438-9.597656 7.488282-17.53125 17.066406-18.132813zm0-136.535156v-25.597656h68.265626v36.523438l-11.5625 3.847656c-3.09375 1.011718-6.464844.769531-9.386719-.675782-8.28125-4.113281-18.015625-4.113281-26.300781 0-2.917969 1.449219-6.289063 1.691407-9.386719.675782l-11.628907-3.847656zm51.199219 179.203125h-34.132812v-34.132812h34.132812zm0-51.199219h-34.132812v-51.203124h34.132812zm-17.066406-68.269531c-17.476563-.050781-32.074219-13.328125-33.78125-30.71875l5.820313 1.9375c7.394531 2.5 15.484374 1.925781 22.449218-1.597656 3.472656-1.730469 7.554688-1.730469 11.027344 0 6.96875 3.515625 15.054688 4.089844 22.449219 1.597656l5.820312-1.9375c-1.710937 17.390625-16.308593 30.667969-33.785156 30.71875zm51.199219 35.320313v84.148437h-17.066406v-102.28125c9.578124.601563 17.046874 8.535157 17.066406 18.132813zm-8.53125-137.71875h-76.800782v-8.628906c.019532-14.078126 11.425782-25.488282 25.507813-25.503907h93.960937v25.90625c-.046874 20.195313-14.328124 37.5625-34.136718 41.503907v-24.746094c0-4.710938-3.820313-8.53125-8.53125-8.53125zm0 0" fill="url(#c)"/><path d="m486.398438 60.234375c0-33.496094-18.773438-59.734375-42.664063-59.734375-23.894531 0-42.667969 26.238281-42.667969 59.734375 0 33.492187 18.773438 59.730469 42.667969 59.730469 23.890625 0 42.664063-26.238282 42.664063-59.730469zm-68.265626 0c0-23.125 11.726563-42.667969 25.601563-42.667969s25.597656 19.539063 25.597656 42.667969c0 23.125-11.722656 42.664063-25.597656 42.664063s-25.601563-19.539063-25.601563-42.664063zm0 0" fill="url(#d)"/><path d="m435.199219 68.765625h17.066406v17.066406h-17.066406zm0 0" fill="url(#e)"/><path d="m435.199219 34.632812h17.066406v17.066407h-17.066406zm0 0" fill="url(#f)"/><path d="m221.867188 196.765625h51.199218c18.851563 0 34.132813-15.28125 34.132813-34.132813 0-18.851562-15.28125-34.132812-34.132813-34.132812h-132.265625c-16.496093 0-29.867187-13.371094-29.867187-29.867188 0-16.496093 13.371094-29.867187 29.867187-29.867187h81.832031c4.179688 24.605469 25.476563 42.621094 50.433594 42.667969h17.066406c4.714844 0 8.53125-3.820313 8.53125-8.535156v-17.066407h25.601563v-17.066406h-25.601563v-17.066406h25.601563v-17.066407h-25.601563v-17.066406c0-4.714844-3.820312-8.535156-8.53125-8.535156h-17.066406c-24.957031.046875-46.253906 18.0625-50.433594 42.667969h-81.832031c-25.921875 0-46.933593 21.011719-46.933593 46.933593 0 25.921876 21.011718 46.933594 46.933593 46.933594h132.265625c9.425782 0 17.066406 7.640625 17.066406 17.066406 0 9.425782-7.640624 17.066407-17.066406 17.066407h-51.199218c-18.851563 0-34.132813 15.28125-34.132813 34.132812 0 18.851563 15.28125 34.132813 34.132813 34.132813h51.199218c9.425782 0 17.066406 7.640625 17.066406 17.066406s-7.640624 17.066406-17.066406 17.066406h-51.199218c-18.851563 0-34.132813 15.285156-34.132813 34.136719 0 18.847656 15.28125 34.132813 34.132813 34.132813h51.199218c9.425782 0 17.066406 7.640624 17.066406 17.066406 0 9.425781-7.640624 17.066406-17.066406 17.066406h-119.464844v17.066406h119.464844c18.851563 0 34.132813-15.28125 34.132813-34.132812 0-18.851563-15.28125-34.132813-34.132813-34.132813h-51.199218c-9.425782 0-17.066407-7.640625-17.066407-17.066406s7.640625-17.066406 17.066407-17.066406h51.199218c18.851563 0 34.132813-15.285157 34.132813-34.136719 0-18.847656-15.28125-34.132812-34.132813-34.132812h-51.199218c-9.425782 0-17.066407-7.640626-17.066407-17.066407s7.640625-17.066406 17.066407-17.066406zm51.199218-170.664063h8.535156v68.265626h-8.535156c-18.851562 0-34.132812-15.28125-34.132812-34.132813s15.28125-34.132813 34.132812-34.132813zm0 0" fill="url(#g)"/></svg>