<svg height="436pt" viewBox="0 -7 436.418 436" width="436pt" xmlns="http://www.w3.org/2000/svg"><path d="m326.328125 252.992188c-9.085937-5.332032-20.335937-5.367188-29.457031-.09375l-.140625.078124-11.875 6.457032c5.761719 1.335937 11.203125 3.8125 15.992187 7.289062zm0 0"/><path d="m55.761719 405.320312c3.5625 0 6.449219-2.886718 6.449219-6.449218s-2.886719-6.449219-6.449219-6.449219c-3.558594 0-6.449219 2.886719-6.449219 6.449219.003906 3.558594 2.890625 6.445312 6.449219 6.449218zm0 0"/><path d="m348.984375 254.414062-39.082031 21.058594c2.902344 3.71875 5.195312 7.878906 6.785156 12.324219l2.78125-1.46875 50.71875-27.359375c-5.628906-5.242188-14.300781-8.007812-21.203125-4.554688zm0 0"/><path d="m99.234375 422.929688-48.210937-158h-51.023438l19.28125 158zm-43.472656-42.507813c10.191406 0 18.453125 8.257813 18.453125 18.445313.003906 10.191406-8.257813 18.453124-18.445313 18.453124-10.191406 0-18.453125-8.261718-18.453125-18.449218.011719-10.183594 8.265625-18.433594 18.445313-18.449219zm0 0"/><path d="m97.21875 374.886719 35.421875-22.394531c.089844-.058594.183594-.109376.28125-.164063 7.699219-4.324219 16.757813-5.550781 25.332031-3.433594l77.507813 14.269531c18.480469 3.304688 37.527343.660157 54.40625-7.554687l128.871093-88.480469c-7.828124-8.136718-20.125-10.046875-30.050781-4.671875l-63.871093 34.460938-5.929688 3.125c.054688.886719.089844 1.777343.089844 2.671875 0 3.316406-2.6875 6-6 6-.089844 0-.179688 0-.273438-.003906l-44.09375-2c-12.898437-.582032-25.828125.015624-38.621094 1.785156-2.136718.320312-4.28125-.53125-5.613281-2.234375-1.335937-1.699219-1.652343-3.984375-.828125-5.980469.820313-2 2.652344-3.402344 4.796875-3.671875 13.519531-1.867187 27.179688-2.5 40.808594-1.886719l37.207031 1.507813c-3.011718-15.214844-16.3125-26.207031-31.816406-26.300781h-51.695312c-10.15625.046874-20.195313-2.191407-29.367188-6.554688l-5.328125-2.488281c-26.902344-13.070313-58.859375-9.980469-82.757813 8l-12.683593 11.316406c-6.082031 5.410156-13.261719 9.445313-21.046875 11.824219zm0 0"/><path d="m391.757812 93.929688c0 3.3125 2.683594 6 6 6h32.660157c3.3125 0 6-2.6875 6-6 0-3.316407-2.6875-6-6-6h-32.660157c-3.316406 0-6 2.683593-6 6zm0 0"/><path d="m385.527344 61.226562c1.296875.003907 2.558594-.417968 3.59375-1.199218l32.660156-24.46875c1.769531-1.265625 2.714844-3.390625 2.472656-5.550782-.246094-2.160156-1.640625-4.023437-3.644531-4.863281-2.007813-.839843-4.3125-.527343-6.023437.816407l-32.660157 24.46875c-2.066406 1.546874-2.910156 4.246093-2.09375 6.695312.820313 2.449219 3.113281 4.101562 5.695313 4.101562zm0 0"/><path d="m381.925781 138.328125 32.660157 24.46875c2.652343 1.898437 6.335937 1.328125 8.292968-1.28125 1.953125-2.609375 1.46875-6.304687-1.097656-8.316406l-32.664062-24.472657c-2.652344-1.894531-6.335938-1.324218-8.289063 1.285157-1.957031 2.609375-1.46875 6.304687 1.09375 8.316406zm0 0"/><path d="m70.417969 99.929688h32.660156c3.316406 0 6-2.6875 6-6 0-3.316407-2.683594-6-6-6h-32.660156c-3.3125 0-6 2.683593-6 6 0 3.3125 2.6875 6 6 6zm0 0"/><path d="m82.65625 163.996094c1.296875 0 2.558594-.421875 3.59375-1.199219l32.660156-24.46875c1.769532-1.265625 2.714844-3.390625 2.472656-5.554687-.242187-2.160157-1.636718-4.023438-3.644531-4.863282-2.007812-.839844-4.3125-.527344-6.023437.816406l-32.660156 24.46875c-2.066407 1.546876-2.910157 4.246094-2.089844 6.695313.816406 2.453125 3.109375 4.105469 5.691406 4.105469zm0 0"/><path d="m79.054688 35.5625 32.664062 24.464844c2.652344 1.898437 6.335938 1.328125 8.289062-1.28125 1.957032-2.609375 1.46875-6.304688-1.09375-8.316406l-32.660156-24.46875c-1.710937-1.34375-4.015625-1.65625-6.023437-.816407-2.007813.839844-3.402344 2.703125-3.644531 4.863281-.242188 2.164063.703124 4.285157 2.472656 5.550782zm0 0"/><path d="m284.1875 193.226562c2.972656-.003906 5.898438-.75 8.511719-2.164062-4.230469-5.25-6.527344-11.796875-6.503907-18.539062.042969-3.292969 2.722657-5.941407 6.019532-5.941407 3.292968 0 5.976562 2.648438 6.019531 5.941407.070313 9.664062 7.925781 17.460937 17.589844 17.460937 9.664062 0 17.519531-7.796875 17.59375-17.460937v-4.3125c-1 .0625-1.773438.101562-2.664063.101562-3.3125.003906-6.003906-2.679688-6.007812-5.992188s2.675781-6.003906 5.992187-6.007812c13.972657-.089844 25.257813-11.441406 25.257813-25.417969 0-13.976562-11.285156-25.328125-25.257813-25.417969-3.316406 0-6-2.683593-6-6 0-3.3125 2.683594-6 6-6 5.480469-.003906 10.894531 1.207032 15.855469 3.539063 3.808594-3.390625 5.832031-8.359375 5.46875-13.445313-.359375-5.085937-3.058594-9.71875-7.304688-12.539062-.042968-.027344-.085937-.050781-.128906-.078125-1.933594 2.496094-5.46875 3.066406-8.089844 1.304687-2.621093-1.757812-3.429687-5.25-1.847656-7.984374 6.011719-10.421876 3.894532-23.632813-5.078125-31.652344-8.96875-8.019532-22.335937-8.652344-32.023437-1.511719-2.664063 1.96875-6.421875 1.402344-8.390625-1.261719-1.96875-2.667968-1.402344-6.421875 1.261719-8.390625.726562-.535156 1.46875-1.039062 2.222656-1.515625.9375-1.886718 1.421875-3.964844 1.425781-6.074218-.113281-7.5625-6.277344-13.636719-13.84375-13.636719s-13.730469 6.074219-13.839844 13.636719v161.796874c.105469 9.734376 8.027344 17.566407 17.761719 17.5625zm4.738281-128.15625c2.367188-2.316406 6.164063-2.273437 8.480469.09375 1.214844 1.25 2.933594 1.875 4.667969 1.703126 4.285156-5.902344 11.738281-8.589844 18.804687-6.777344 3.179688.847656 5.082032 4.097656 4.261719 7.285156-.816406 3.1875-4.050781 5.125-7.246094 4.335938-2.246093-.570313-4.621093.25-6.039062 2.082031-1.421875 1.835937-1.617188 4.339843-.5 6.371093 1.601562 2.902344.546875 6.550782-2.351563 8.152344-2.902344 1.601563-6.550781.550782-8.152344-2.351562-.878906-1.59375-1.507812-3.308594-1.867187-5.09375-.140625-.726563-.234375-1.460938-.289063-2.199219-1.082031-.175781-2.144531-.449219-3.179687-.820313-2.527344-.90625-4.8125-2.375-6.6875-4.296874-2.316406-2.371094-2.273437-6.167969.097656-8.484376zm-3.527343 60.328126c2.855468-2.058594 6.179687-3.367188 9.667968-3.816407-.132812-4.984375 1.507813-9.855469 4.628906-13.742187 1.335938-1.6875 3.476563-2.53125 5.601563-2.207032 2.128906.320313 3.921875 1.761719 4.699219 3.765626.773437 2.007812.417968 4.277343-.941406 5.949218-1.886719 2.363282-2.488282 5.503906-1.609376 8.398438 7.96875 4.074218 12.511719 12.71875 11.351563 21.59375-.433594 3.285156-3.449219 5.597656-6.734375 5.164062-3.285156-.429687-5.597656-3.445312-5.167969-6.730468.183594-1.371094.050781-2.761719-.386719-4.070313-.921874-2.777344-3.105468-4.949219-5.886718-5.851563-2.78125-.902343-5.828125-.429687-8.203125 1.277344-2.6875 1.9375-6.4375 1.328125-8.375-1.359375s-1.332031-6.4375 1.355469-8.375zm0 0"/><path d="m168.761719 105.480469c-13.976563.085937-25.257813 11.441406-25.257813 25.414062 0 13.976563 11.28125 25.332031 25.257813 25.417969 3.3125 0 6 2.6875 6 6 .035156 1.574219-.566407 3.097656-1.667969 4.226562-1.101562 1.128907-2.609375 1.765626-4.183594 1.773438-.886718 0-1.492187-.042969-2.492187-.101562v4.3125c-.09375 6.300781 3.210937 12.160156 8.648437 15.335937s12.164063 3.175781 17.605469 0c5.4375-3.175781 8.742187-9.035156 8.644531-15.335937-.027344-2.148438 1.105469-4.152344 2.964844-5.234376 1.859375-1.085937 4.160156-1.085937 6.019531 0 1.859375 1.082032 2.988281 3.085938 2.960938 5.234376.003906 6.75-2.316407 13.296874-6.566407 18.539062 2.53125 1.414062 5.382813 2.160156 8.285157 2.167969 4.644531-.011719 9.09375-1.867188 12.363281-5.164063 3.273438-3.296875 5.097656-7.757812 5.074219-12.402344v-161.792968c.042969-4.867188-2.53125-9.382813-6.738281-11.828125-4.207032-2.445313-9.402344-2.445313-13.609376 0-4.207031 2.445312-6.78125 6.960937-6.738281 11.828125.011719 2.109375.507813 4.1875 1.457031 6.070312.753907.476563 1.507813.980469 2.234376 1.515625 1.808593 1.238281 2.792968 3.367188 2.574218 5.546875-.21875 2.183594-1.609375 4.070313-3.628906 4.925782-2.019531.855468-4.34375.539062-6.0625-.820313-9.6875-7.140625-23.054688-6.511719-32.027344 1.511719-8.96875 8.019531-11.089844 21.230468-5.074218 31.65625 1.585937 2.734375.777343 6.226562-1.84375 7.988281-2.625 1.761719-6.164063 1.1875-8.09375-1.3125-.042969.027344-.085938.050781-.128907.078125-4.257812 2.8125-6.964843 7.449219-7.328125 12.539062-.359375 5.089844 1.671875 10.0625 5.492188 13.445313 4.960937-2.332031 10.375-3.539063 15.855468-3.535156 3.3125 0 6 2.683593 6 6 0 3.3125-2.6875 6-6 6zm46.691406 28.289062c-1.9375 2.691407-5.6875 3.296875-8.378906 1.359375-2.96875-2.136718-6.929688-2.308594-10.074219-.433594-3.144531 1.878907-4.875 5.441407-4.402344 9.074219.429688 3.285157-1.882812 6.300781-5.167968 6.730469-3.285157.433594-6.300782-1.878906-6.734376-5.164062-1.160156-8.875 3.382813-17.519532 11.351563-21.589844.878906-2.894532.277344-6.039063-1.609375-8.402344-1.375-1.667969-1.746094-3.949219-.96875-5.964844.773438-2.019531 2.574219-3.464844 4.714844-3.785156 2.136718-.316406 4.28125.539062 5.613281 2.242188 3.121094 3.886718 4.761719 8.757812 4.628906 13.742187 3.488281.449219 6.8125 1.761719 9.667969 3.816406 2.6875 1.9375 3.296875 5.6875 1.359375 8.375zm-31.953125-85.898437c7.066406-1.816406 14.519531.871094 18.800781 6.777344 1.734375.175781 3.457031-.453126 4.675781-1.699219 2.320313-2.34375 6.09375-2.371094 8.453126-.070313 2.359374 2.304688 2.414062 6.082032.128906 8.457032-2.660156 2.71875-6.117188 4.511718-9.871094 5.113281-.167969 2.558593-.902344 5.050781-2.152344 7.292969-1.597656 2.902343-5.246094 3.957031-8.148437 2.355468-2.902344-1.597656-3.960938-5.246094-2.359375-8.148437.894531-1.625.960937-3.578125.183594-5.261719-.78125-1.679688-2.316407-2.890625-4.132813-3.257812-.855469-.179688-1.742187-.15625-2.585937.0625-3.210938.824218-6.480469-1.109376-7.304688-4.320313-.824219-3.207031 1.109375-6.480469 4.316406-7.304687zm0 0"/></svg>