<svg height="511pt" viewBox="1 -25 511.9994 511" width="511pt" xmlns="http://www.w3.org/2000/svg" xmlns:xlink="http://www.w3.org/1999/xlink"><linearGradient id="a"><stop offset=".004" stop-color="#009fff"/><stop offset=".093" stop-color="#099bf8"/><stop offset=".242" stop-color="#238ee4"/><stop offset=".431" stop-color="#4c7bc5"/><stop offset=".654" stop-color="#865f99"/><stop offset=".902" stop-color="#cf3d61"/><stop offset=".995" stop-color="#ec2f4b"/></linearGradient><linearGradient id="b" gradientTransform="matrix(.614557 0 0 -.614557 0 510.65185)" gradientUnits="userSpaceOnUse" x1="-22.411" x2="859.5448" xlink:href="#a" y1="455.2077" y2="455.2077"/><linearGradient id="c" gradientTransform="matrix(.614557 0 0 -.614557 0 510.65185)" gradientUnits="userSpaceOnUse" x1="-22.411" x2="859.5448" xlink:href="#a" y1="568.3264" y2="568.3264"/><linearGradient id="d" gradientTransform="matrix(.614557 0 0 -.614557 0 510.65185)" gradientUnits="userSpaceOnUse" x1="-22.411" x2="859.5448" xlink:href="#a" y1="719.0295" y2="719.0295"/><linearGradient id="e" gradientTransform="matrix(.614557 0 0 -.614557 0 510.65185)" gradientUnits="userSpaceOnUse" x1="-22.411" x2="859.5448" xlink:href="#a" y1="607.9482" y2="607.9482"/><linearGradient id="f" gradientTransform="matrix(.614557 0 0 -.614557 0 510.65185)" gradientUnits="userSpaceOnUse" x1="-22.411" x2="859.5448" xlink:href="#a" y1="719.031" y2="719.031"/><linearGradient id="g" gradientTransform="matrix(.614557 0 0 -.614557 0 510.65185)" gradientUnits="userSpaceOnUse" x1="-22.411" x2="859.5448" xlink:href="#a" y1="705.1457" y2="705.1457"/><linearGradient id="h" gradientTransform="matrix(.614557 0 0 -.614557 0 510.65185)" gradientUnits="userSpaceOnUse" x1="-22.411" x2="859.5448" xlink:href="#a" y1="482.9801" y2="482.9801"/><path d="m503.46875.5h-494.9375c-4.710938 0-8.53125 3.820312-8.53125 8.535156v273.066406c0 4.710938 3.820312 8.53125 8.53125 8.53125h247.46875v8.535157c0 4.710937 3.820312 8.53125 8.53125 8.53125h25.601562v128c-.0625 14.078125 11.296876 25.539062 25.375 25.601562 6.394532.027344 12.566407-2.347656 17.292969-6.65625 10.398438 9.484375 26.519531 8.746094 36.007813-1.652343 4.308594-4.726563 6.6875-10.898438 6.65625-17.292969v-145.066407h128c4.714844 0 8.535156-3.820312 8.535156-8.53125v-273.066406c0-4.714844-3.820312-8.535156-8.53125-8.535156zm-213.335938 290.132812h-17.066406v-51.199218h17.066406zm68.265626 145.066407c0 4.714843-3.820313 8.535156-8.53125 8.535156-4.714844 0-8.535157-3.820313-8.535157-8.535156v-85.332031h-17.066406v85.332031c0 4.714843-3.820313 8.535156-8.53125 8.535156-4.714844 0-8.535156-3.820313-8.535156-8.535156v-110.933594h51.203125v110.933594zm0-153.597657v25.597657h-51.199219v-68.265625h51.199219zm-42.664063-76.800781c0-9.425781 7.640625-17.066406 17.066406-17.066406s17.066407 7.640625 17.066407 17.066406-7.640626 17.066407-17.066407 17.066407-17.066406-7.640626-17.066406-17.066407zm76.800781 68.265625h-17.070312v-93.867187c0-4.710938 3.824218-8.53125 8.535156-8.53125s8.53125 3.820312 8.53125 8.53125v93.867187zm102.398438 0h-85.332032v-93.867187c0-14.136719-11.464843-25.597657-25.601562-25.597657s-25.601562 11.460938-25.601562 25.597657v3.261719c-12.207032-14.234376-33.640626-15.878907-47.875-3.671876-12.511719 10.730469-15.511719 28.894532-7.113282 43.078126h-38.875c-4.714844 0-8.535156 3.820312-8.535156 8.53125v42.667968h-238.933594v-256h477.867188zm0 0" fill="url(#b)"/><path d="m181.699219 113.933594-110.933594 110.933594 12.066406 12.066406 104.902344-104.902344 62.234375 62.234375c2.976562 2.988281 7.691406 3.351563 11.09375.855469l114.40625-83.910156v25.824218h17.066406v-42.667968c0-4.714844-3.820312-8.535157-8.535156-8.535157h-51.199219v17.066407h25.128907l-101.078126 74.128906-63.09375-63.09375c-3.332031-3.324219-8.726562-3.324219-12.058593 0zm0 0" fill="url(#c)"/><path d="m418.132812 102.898438h51.199219c4.714844 0 8.535157-3.820313 8.535157-8.53125v-51.199219c-.003907-4.714844-3.824219-8.535157-8.535157-8.53125-2.261719 0-4.433593.898437-6.03125 2.496093l-19.566406 19.566407-19.566406-19.566407c-3.335938-3.332031-8.738281-3.328124-12.070313.003907-1.597656 1.597656-2.496094 3.769531-2.496094 6.03125v51.199219c0 4.710937 3.820313 8.53125 8.53125 8.53125zm8.535157-39.132813 11.03125 11.035156c3.332031 3.332031 8.734375 3.332031 12.066406 0l11.035156-11.035156v22.066406h-34.132812zm0 0" fill="url(#d)"/><path d="m68.265625 162.632812c14.140625 0 25.601563-11.460937 25.601563-25.597656 0-14.140625-11.460938-25.601562-25.601563-25.601562-14.136719 0-25.597656 11.460937-25.597656 25.601562 0 14.136719 11.460937 25.597656 25.597656 25.597656zm0-34.132812c4.714844 0 8.535156 3.820312 8.535156 8.535156 0 4.710938-3.820312 8.53125-8.535156 8.53125-4.710937 0-8.53125-3.820312-8.53125-8.53125 0-4.714844 3.820313-8.535156 8.53125-8.535156zm0 0" fill="url(#e)"/><path d="m162.132812 94.367188c14.140626 0 25.601563-11.460938 25.601563-25.601563 0-14.136719-11.460937-25.597656-25.601563-25.597656-14.136718 0-25.597656 11.460937-25.597656 25.597656 0 14.140625 11.460938 25.601563 25.597656 25.601563zm0-34.132813c4.714844 0 8.535157 3.820313 8.535157 8.53125 0 4.714844-3.820313 8.535156-8.535157 8.535156-4.710937 0-8.53125-3.820312-8.53125-8.535156 0-4.710937 3.820313-8.53125 8.53125-8.53125zm0 0" fill="url(#f)"/><path d="m244.964844 100.398438 11.035156-11.03125 11.035156 11.03125 12.066406-12.066407-11.035156-11.03125 11.035156-11.035156-12.066406-12.066406-11.035156 11.035156-11.035156-11.035156-12.066406 12.066406 11.035156 11.035156-11.035156 11.03125zm0 0" fill="url(#g)"/><path d="m198.765625 190.734375-11.03125 11.03125-11.035156-11.03125-12.066407 12.066406 11.035157 11.03125-11.035157 11.035157 12.066407 12.066406 11.035156-11.035156 11.03125 11.035156 12.066406-12.066406-11.03125-11.035157 11.03125-11.03125zm0 0" fill="url(#h)"/></svg>